<svg width="37" height="32" viewBox="0 0 37 32" fill="none"
	xmlns="http://www.w3.org/2000/svg">
	<path d="M11.1058 1.74219V7.44531C11.1058 8.39025 10.3398 9.15625 9.39483 9.15625H2.1709C1.22596 9.15625 0.459961 8.39025 0.459961 7.44531V1.74219C0.459961 0.797251 1.22596 0.03125 2.1709 0.03125H9.39483C10.3398 0.03125 11.1058 0.797251 11.1058 1.74219ZM24.0329 18.8516V13.1484C24.0329 12.2035 23.2669 11.4375 22.322 11.4375H15.098C14.153 11.4375 13.387 12.2035 13.387 13.1484V18.8516C13.387 19.7965 14.153 20.5625 15.098 20.5625H22.3219C23.2669 20.5625 24.0329 19.7965 24.0329 18.8516ZM26.3142 1.74219V7.44531C26.3142 8.39025 27.0802 9.15625 28.0251 9.15625H35.249C36.194 9.15625 36.96 8.39025 36.96 7.44531V1.74219C36.96 0.797251 36.194 0.03125 35.249 0.03125H28.0251C27.0802 0.03125 26.3142 0.797251 26.3142 1.74219ZM24.0329 7.44531V1.74219C24.0329 0.797251 23.2669 0.03125 22.322 0.03125H15.098C14.153 0.03125 13.387 0.797251 13.387 1.74219V7.44531C13.387 8.39025 14.153 9.15625 15.098 9.15625H22.3219C23.2669 9.15625 24.0329 8.39025 24.0329 7.44531ZM9.39483 11.4375H2.1709C1.22596 11.4375 0.459961 12.2035 0.459961 13.1484V18.8516C0.459961 19.7965 1.22596 20.5625 2.1709 20.5625H9.39483C10.3398 20.5625 11.1058 19.7965 11.1058 18.8516V13.1484C11.1058 12.2035 10.3398 11.4375 9.39483 11.4375ZM0.459961 24.5547V30.2578C0.459961 31.2027 1.22596 31.9688 2.1709 31.9688H9.39483C10.3398 31.9688 11.1058 31.2027 11.1058 30.2578V24.5547C11.1058 23.6098 10.3398 22.8438 9.39483 22.8438H2.1709C1.22596 22.8438 0.459961 23.6098 0.459961 24.5547ZM28.0251 20.5625H35.249C36.194 20.5625 36.96 19.7965 36.96 18.8516V13.1484C36.96 12.2035 36.194 11.4375 35.249 11.4375H28.0251C27.0802 11.4375 26.3142 12.2035 26.3142 13.1484V18.8516C26.3142 19.7965 27.0802 20.5625 28.0251 20.5625ZM28.0251 31.9688H35.249C36.194 31.9688 36.96 31.2027 36.96 30.2578V24.5547C36.96 23.6098 36.194 22.8438 35.249 22.8438H28.0251C27.0802 22.8438 26.3142 23.6098 26.3142 24.5547V30.2578C26.3142 31.2027 27.0802 31.9688 28.0251 31.9688ZM13.387 24.5547V30.2578C13.387 31.2027 14.153 31.9688 15.098 31.9688H22.3219C23.2668 31.9688 24.0328 31.2027 24.0328 30.2578V24.5547C24.0328 23.6098 23.2668 22.8438 22.3219 22.8438H15.098C14.153 22.8438 13.387 23.6098 13.387 24.5547Z" fill="currentColor"/>
</svg>
