<svg width="20" height="21" viewBox="0 0 20 21" fill="none" xmlns="http://www.w3.org/2000/svg">
<path d="M19.7272 17.355L15.8327 13.4604C15.6569 13.2847 15.4186 13.187 15.1686 13.187C14.91 13.187 14.7612 12.8862 14.9041 12.6706C15.7559 11.3857 16.2507 9.84517 16.2507 8.18701C16.2507 3.69873 12.614 0.0620117 8.12567 0.0620117C3.63739 0.0620117 0.000671387 3.69873 0.000671387 8.18701C0.000671387 12.6753 3.63739 16.312 8.12567 16.312C9.78383 16.312 11.3243 15.8172 12.6093 14.9655C12.8249 14.8225 13.1257 14.9713 13.1257 15.23C13.1257 15.48 13.2233 15.7183 13.3991 15.894L17.2936 19.7886C17.6608 20.1558 18.2546 20.1558 18.6179 19.7886L19.7233 18.6831C20.0905 18.3159 20.0905 17.7222 19.7272 17.355ZM8.12567 13.187C5.36395 13.187 3.12567 10.9526 3.12567 8.18701C3.12567 5.42529 5.36005 3.18701 8.12567 3.18701C10.8874 3.18701 13.1257 5.42139 13.1257 8.18701C13.1257 10.9487 10.8913 13.187 8.12567 13.187Z" fill="white"/>
</svg>
