<svg width="37" height="32" viewBox="0 0 37 32" fill="none"
	xmlns="http://www.w3.org/2000/svg">
	<path d="M10.6458 13.1484V18.8516C10.6458 19.7965 9.87981 20.5625 8.93487 20.5625H1.71094C0.766001 20.5625 0 19.7965 0 18.8516V13.1484C0 12.2035 0.766001 11.4375 1.71094 11.4375H8.93487C9.87981 11.4375 10.6458 12.2035 10.6458 13.1484ZM0 24.5547V30.2578C0 31.2027 0.766001 31.9688 1.71094 31.9688H8.93487C9.87981 31.9688 10.6458 31.2027 10.6458 30.2578V24.5547C10.6458 23.6098 9.87981 22.8438 8.93487 22.8438H1.71094C0.766001 22.8438 0 23.6098 0 24.5547ZM8.93487 0.03125H1.71094C0.766001 0.03125 0 0.797251 0 1.74219V7.44531C0 8.39025 0.766001 9.15625 1.71094 9.15625H8.93487C9.87981 9.15625 10.6458 8.39025 10.6458 7.44531V1.74219C10.6458 0.797251 9.87981 0.03125 8.93487 0.03125ZM14.638 31.9688H34.7891C35.734 31.9688 36.5 31.2027 36.5 30.2578V24.5547C36.5 23.6098 35.734 22.8438 34.7891 22.8438H14.638C13.6931 22.8438 12.9271 23.6098 12.9271 24.5547V30.2578C12.9271 31.2027 13.6931 31.9688 14.638 31.9688ZM12.9271 1.74219V7.44531C12.9271 8.39025 13.6931 9.15625 14.638 9.15625H34.7891C35.734 9.15625 36.5 8.39025 36.5 7.44531V1.74219C36.5 0.797251 35.734 0.03125 34.7891 0.03125H14.638C13.6931 0.03125 12.9271 0.797251 12.9271 1.74219ZM14.638 20.5625H34.7891C35.734 20.5625 36.5 19.7965 36.5 18.8516V13.1484C36.5 12.2035 35.734 11.4375 34.7891 11.4375H14.638C13.6931 11.4375 12.9271 12.2035 12.9271 13.1484V18.8516C12.9271 19.7965 13.6931 20.5625 14.638 20.5625Z" fill="currentColor"/>
</svg>
